<?xml version="1.0" encoding="UTF-8" standalone="no"?>
<!DOCTYPE svg PUBLIC "-//W3C//DTD SVG 1.1//EN" "http://www.w3.org/Graphics/SVG/1.1/DTD/svg11.dtd">
<svg width="100%" height="100%" viewBox="0 0 6094 5109" version="1.1" xmlns="http://www.w3.org/2000/svg" xmlns:xlink="http://www.w3.org/1999/xlink" xml:space="preserve" xmlns:serif="http://www.serif.com/" style="fill-rule:evenodd;clip-rule:evenodd;stroke-linejoin:round;stroke-miterlimit:2;">
    <g transform="matrix(1,0,0,1,-4277.6,5046.25)">
        <g transform="matrix(2.66667,0,0,2.66667,2486.67,-5046.25)">
            <g id="gas">
                <g opacity="0.28">
                    <g transform="matrix(-588.955,993.457,993.457,588.955,2474.11,705.384)">
                        <path d="M0.029,0.033C0.031,0.029 0.032,0.026 0.033,0.023C0.033,0.019 0.033,0.016 0.031,0.014C0.023,0.022 0.019,0.033 0.012,0.042C0.008,0.049 0.003,0.055 0,0.062C-0.003,0.069 -0.003,0.078 0,0.082C0.011,0.066 0.021,0.05 0.029,0.033ZM0.213,-0.002L0.215,-0.004C0.188,-0.031 0.144,-0.036 0.103,-0.017L0.104,-0.014C0.144,-0.033 0.187,-0.028 0.213,-0.002ZM0.296,0.046C0.309,0.04 0.345,0.018 0.346,-0C0.315,0.012 0.288,0.026 0.257,0.027C0.252,0.028 0.246,0.029 0.244,0.034C0.243,0.038 0.244,0.041 0.246,0.044C0.258,0.056 0.278,0.055 0.296,0.046ZM0.344,-0.037L0.344,-0.04C0.321,-0.033 0.298,-0.034 0.281,-0.044L0.279,-0.041C0.297,-0.031 0.321,-0.03 0.344,-0.037ZM0.231,-0.07L0.233,-0.072C0.222,-0.08 0.209,-0.086 0.196,-0.089L0.195,-0.086C0.208,-0.083 0.22,-0.078 0.231,-0.07ZM0.093,-0.06L0.095,-0.058C0.118,-0.089 0.151,-0.113 0.182,-0.12L0.183,-0.123C0.15,-0.115 0.117,-0.092 0.093,-0.06ZM0.513,0.034C0.523,0.024 0.495,0.015 0.492,0.014C0.494,0.015 0.497,0.026 0.5,0.029C0.502,0.03 0.51,0.037 0.513,0.034ZM0.551,0.054C0.559,0.056 0.568,0.055 0.576,0.053C0.581,0.052 0.587,0.048 0.585,0.042C0.584,0.037 0.575,0.037 0.571,0.036C0.559,0.035 0.545,0.036 0.531,0.041C0.536,0.048 0.543,0.053 0.551,0.054ZM0.412,-0.057L0.411,-0.054C0.436,-0.044 0.461,-0.031 0.483,-0.016L0.485,-0.018C0.462,-0.034 0.438,-0.047 0.412,-0.057ZM0.613,0.019L0.614,0.016C0.583,0.018 0.554,0.011 0.53,-0.006L0.528,-0.003C0.552,0.013 0.582,0.021 0.613,0.019ZM0.706,-0.009L0.704,-0.011C0.679,0.016 0.649,0.036 0.619,0.043L0.619,0.046C0.649,0.038 0.68,0.019 0.706,-0.009ZM0.617,-0.02C0.617,-0.02 0.632,-0.012 0.635,-0.011C0.639,-0.011 0.654,-0.011 0.657,-0.018C0.665,-0.034 0.623,-0.023 0.617,-0.02ZM0.344,-0.127C0.346,-0.128 0.37,-0.113 0.373,-0.112C0.384,-0.108 0.395,-0.105 0.406,-0.103C0.411,-0.102 0.43,-0.096 0.427,-0.108C0.426,-0.112 0.416,-0.115 0.413,-0.118C0.408,-0.121 0.403,-0.125 0.398,-0.128C0.382,-0.136 0.362,-0.14 0.344,-0.127ZM0.476,-0.046C0.478,-0.045 0.481,-0.046 0.483,-0.049C0.483,-0.049 0.483,-0.049 0.483,-0.049C0.484,-0.051 0.484,-0.053 0.483,-0.054C0.483,-0.056 0.482,-0.056 0.48,-0.056L0.48,-0.053C0.481,-0.053 0.481,-0.053 0.481,-0.052C0.481,-0.052 0.481,-0.051 0.481,-0.05C0.48,-0.049 0.479,-0.048 0.477,-0.049C0.476,-0.049 0.475,-0.05 0.474,-0.052L0.462,-0.064C0.468,-0.063 0.474,-0.06 0.478,-0.055L0.48,-0.058C0.475,-0.064 0.467,-0.067 0.459,-0.067L0.455,-0.067L0.472,-0.049C0.473,-0.048 0.474,-0.046 0.476,-0.046ZM0.771,-0.085C0.765,-0.085 0.757,-0.082 0.751,-0.077C0.747,-0.075 0.738,-0.062 0.735,-0.061C0.745,-0.064 0.768,-0.07 0.771,-0.085ZM0.848,-0.103L0.848,-0.106C0.828,-0.1 0.809,-0.09 0.791,-0.077L0.792,-0.074C0.81,-0.087 0.829,-0.097 0.848,-0.103ZM0.987,-0.108L0.988,-0.11C0.971,-0.125 0.95,-0.133 0.926,-0.133L0.925,-0.13C0.948,-0.13 0.97,-0.122 0.987,-0.108ZM0.062,-0.051C0.114,-0.112 0.179,-0.164 0.246,-0.182C0.324,-0.203 0.396,-0.177 0.446,-0.127C0.47,-0.103 0.49,-0.074 0.518,-0.058C0.565,-0.033 0.628,-0.046 0.686,-0.069C0.744,-0.092 0.802,-0.125 0.86,-0.141C0.919,-0.156 0.981,-0.15 1.011,-0.104C0.999,-0.092 1.001,-0.089 0.989,-0.077C0.919,-0.104 0.827,-0.085 0.75,-0.027C0.713,0 0.679,0.036 0.641,0.058C0.591,0.086 0.536,0.087 0.498,0.061C0.479,0.048 0.465,0.029 0.447,0.015C0.428,0.002 0.405,-0.007 0.38,0.004C0.34,0.02 0.309,0.076 0.27,0.084C0.23,0.091 0.212,0.044 0.18,0.026C0.147,0.009 0.099,0.026 0.062,0.058C0.032,0.084 -0.005,0.144 -0.03,0.19C-0.039,0.206 -0.06,0.212 -0.076,0.203C-0.076,0.202 -0.076,0.202 -0.077,0.202C-0.084,0.198 -0.087,0.188 -0.083,0.18C-0.045,0.108 0.012,0.007 0.062,-0.051Z" style="fill:url(#_Linear1);fill-rule:nonzero;"/>
                    </g>
                    <g transform="matrix(1,0,0,1,1800.82,1382.71)">
                        <path d="M0,23.778C3.666,16.226 4.896,7.966 3.577,0C-0.593,7.492 -1.861,15.777 0,23.778" style="fill:rgb(191,122,255);fill-rule:nonzero;"/>
                    </g>
                    <g transform="matrix(-1307.03,1620.03,1620.03,1307.03,2963.52,-159.661)">
                        <path d="M0.535,-0.025L0.535,-0.026C0.516,-0.02 0.497,-0.01 0.48,0.003L0.48,0.004C0.498,-0.009 0.517,-0.019 0.535,-0.025ZM0.562,-0.056C0.567,-0.062 0.557,-0.064 0.554,-0.06C0.551,-0.058 0.548,-0.055 0.545,-0.052C0.549,-0.051 0.558,-0.051 0.562,-0.056ZM0.618,-0.079L0.619,-0.081C0.598,-0.089 0.573,-0.088 0.548,-0.078L0.548,-0.076C0.573,-0.086 0.598,-0.087 0.618,-0.079ZM0.63,-0.05L0.631,-0.051C0.623,-0.058 0.612,-0.062 0.601,-0.064L0.601,-0.063C0.612,-0.061 0.622,-0.056 0.63,-0.05ZM0.677,-0.048C0.685,-0.065 0.654,-0.074 0.644,-0.074C0.642,-0.074 0.64,-0.074 0.639,-0.072C0.636,-0.069 0.637,-0.065 0.639,-0.062C0.642,-0.056 0.668,-0.027 0.677,-0.048ZM0.737,-0.008L0.736,-0.006L0.742,-0.001L0.743,-0.003L0.737,-0.008ZM0.802,0.044C0.807,0.045 0.814,0.046 0.821,0.042C0.81,0.038 0.799,0.034 0.789,0.029C0.78,0.026 0.77,0.019 0.761,0.018C0.764,0.032 0.788,0.043 0.802,0.044ZM0.731,-0.026L0.73,-0.024L0.752,-0.007L0.753,-0.008L0.731,-0.026ZM0.852,0.044L0.853,0.042C0.848,0.042 0.843,0.041 0.838,0.04L0.838,0.041C0.842,0.043 0.847,0.044 0.852,0.044ZM0.857,0.023L0.826,0.023L0.826,0.024L0.857,0.025L0.857,0.023ZM0.884,0.037C0.889,0.038 0.895,0.037 0.9,0.036C0.895,0.032 0.889,0.031 0.883,0.032C0.881,0.032 0.878,0.034 0.879,0.036C0.879,0.038 0.883,0.037 0.884,0.037ZM0.936,0.039L0.937,0.038C0.937,0.038 0.937,0.038 0.937,0.038L0.938,0.037C0.935,0.033 0.93,0.03 0.925,0.03L0.923,0.03L0.924,0.031C0.927,0.036 0.931,0.038 0.936,0.039ZM0.972,0.045L0.973,0.044L0.965,0.037L0.964,0.038L0.972,0.045ZM0.293,0.133C0.257,0.129 0.249,0.08 0.282,0.066C0.379,0.023 0.499,-0.03 0.517,-0.047C0.514,-0.045 0.504,-0.044 0.5,-0.043C0.494,-0.041 0.488,-0.039 0.483,-0.037C0.471,-0.032 -0.044,0.15 0.127,0.037C0.133,0.033 0.208,-0.003 0.213,-0.009C0.223,-0.021 0.564,-0.134 0.635,-0.102C0.67,-0.087 0.709,-0.051 0.74,-0.03C0.849,0.044 0.97,-0.007 1.04,0.084C0.86,-0.023 0.862,0.129 0.721,-0C0.694,-0.025 0.635,-0.029 0.592,-0.023C0.524,-0.012 0.407,0.082 0.349,0.139C0.35,0.138 0.325,0.135 0.293,0.133Z" style="fill:url(#_Linear2);fill-rule:nonzero;"/>
                    </g>
                    <g transform="matrix(1,0,0,1,746.381,959.384)">
                        <path d="M0,24.016L1.115,0C-0.697,7.865 -1.169,15.894 0,24.016" style="fill:rgb(240,105,217);fill-rule:nonzero;"/>
                    </g>
                    <g transform="matrix(100.589,-1026,-1026,-100.589,1032.01,791.995)">
                        <path d="M0.072,0.043C0.053,0.046 0.036,0.055 0.02,0.07C0.012,0.077 0.007,0.088 -0.001,0.096C-0.003,0.098 -0.016,0.111 -0.004,0.109C-0.002,0.108 -0,0.107 0.001,0.105C0.021,0.09 0.043,0.082 0.064,0.081C0.071,0.081 0.078,0.082 0.084,0.079C0.09,0.076 0.096,0.068 0.096,0.059C0.096,0.052 0.092,0.047 0.087,0.044C0.082,0.042 0.077,0.042 0.072,0.043ZM0.123,0.128C0.124,0.133 0.15,0.14 0.154,0.142C0.164,0.147 0.174,0.152 0.185,0.155C0.209,0.161 0.188,0.121 0.178,0.114C0.166,0.106 0.151,0.106 0.137,0.11C0.134,0.111 0.13,0.112 0.127,0.115C0.124,0.118 0.122,0.123 0.123,0.128ZM-0.073,0.197L-0.071,0.199C-0.057,0.175 -0.041,0.154 -0.023,0.136L-0.025,0.133C-0.043,0.151 -0.059,0.173 -0.073,0.197ZM0.194,0.075L0.195,0.072C0.174,0.067 0.152,0.066 0.13,0.068L0.13,0.072C0.151,0.07 0.173,0.071 0.194,0.075ZM0.159,0.203C0.173,0.17 0.115,0.167 0.114,0.161C0.116,0.175 0.148,0.23 0.159,0.203ZM0.783,-0.231L0.783,-0.23C0.783,-0.218 0.776,-0.207 0.765,-0.202C0.626,-0.136 0.226,0.061 0.265,0.127C0.299,0.183 0.657,-0.038 0.756,-0.1C0.767,-0.107 0.781,-0.099 0.78,-0.086C0.78,-0.081 0.777,-0.076 0.772,-0.073C0.705,-0.034 0.226,0.241 0.215,0.244C0.181,0.255 0.146,0.246 0.119,0.221C0.102,0.206 0.089,0.186 0.073,0.169C0.058,0.153 0.038,0.14 0.018,0.144C-0.015,0.15 -0.036,0.196 -0.063,0.226C-0.094,0.26 -0.136,0.273 -0.173,0.26L-0.189,0.259C-0.157,0.255 -0.126,0.229 -0.102,0.197C-0.073,0.157 -0.051,0.108 -0.024,0.066C0.004,0.024 0.041,-0.012 0.081,-0.013C0.102,-0.013 0.122,-0.004 0.141,0.005C0.16,0.013 0.18,0.022 0.201,0.019C0.218,0.018 0.596,-0.176 0.734,-0.26C0.756,-0.273 0.784,-0.257 0.783,-0.231Z" style="fill:url(#_Linear3);fill-rule:nonzero;"/>
                    </g>
                    <g transform="matrix(930.508,0,0,-930.508,671.596,927.781)">
                        <path d="M0.862,0.316C0.828,0.277 0.784,0.243 0.733,0.216C0.747,0.223 0.757,0.245 0.767,0.255C0.78,0.268 0.793,0.281 0.807,0.293C0.821,0.305 0.835,0.318 0.851,0.329C0.875,0.345 0.876,0.333 0.862,0.316ZM0.686,0.315C0.681,0.297 0.674,0.281 0.665,0.264C0.659,0.252 0.653,0.24 0.641,0.231C0.63,0.222 0.611,0.217 0.595,0.222C0.612,0.244 0.628,0.267 0.64,0.291C0.649,0.309 0.654,0.329 0.654,0.349C0.654,0.354 0.65,0.366 0.662,0.366C0.671,0.365 0.681,0.354 0.684,0.348C0.689,0.338 0.688,0.326 0.686,0.315ZM0.542,0.044L0.54,0.046C0.567,0.065 0.589,0.088 0.604,0.113L0.608,0.111C0.593,0.086 0.57,0.063 0.542,0.044ZM0.545,0.154C0.547,0.163 0.551,0.173 0.562,0.174C0.569,0.175 0.575,0.173 0.579,0.17C0.583,0.166 0.585,0.162 0.587,0.157C0.593,0.14 0.589,0.12 0.576,0.104C0.572,0.1 0.568,0.096 0.562,0.094C0.529,0.08 0.543,0.142 0.545,0.154ZM0.566,0.361C0.566,0.361 0.566,0.36 0.567,0.36C0.567,0.361 0.567,0.362 0.568,0.363C0.567,0.362 0.567,0.361 0.567,0.36C0.59,0.35 0.6,0.326 0.589,0.308C0.567,0.319 0.557,0.342 0.567,0.36C0.566,0.36 0.566,0.361 0.566,0.361ZM0.528,-0.089C0.528,-0.099 0.511,-0.153 0.489,-0.143C0.47,-0.134 0.481,-0.079 0.481,-0.065C0.481,-0.061 0.481,-0.055 0.486,-0.052C0.491,-0.049 0.499,-0.05 0.505,-0.052C0.522,-0.058 0.529,-0.074 0.528,-0.089ZM0.473,0.023C0.468,0.02 0.463,0.018 0.458,0.019C0.452,0.019 0.466,0.039 0.468,0.04C0.473,0.044 0.489,0.048 0.486,0.038C0.486,0.036 0.484,0.034 0.483,0.032C0.48,0.029 0.477,0.025 0.473,0.023ZM0.475,-0.028L0.471,-0.028L0.471,-0.002L0.475,-0.002L0.475,-0.028ZM0.473,-0.167L0.469,-0.167L0.469,-0.152L0.473,-0.152L0.473,-0.167ZM0.439,-0.234L0.436,-0.232C0.448,-0.224 0.456,-0.213 0.459,-0.201L0.463,-0.202C0.459,-0.214 0.451,-0.225 0.439,-0.234ZM0.403,-0.271C0.395,-0.275 0.387,-0.278 0.378,-0.28C0.369,-0.282 0.36,-0.283 0.351,-0.283C0.349,-0.283 0.328,-0.284 0.337,-0.28C0.338,-0.279 0.34,-0.279 0.342,-0.279C0.357,-0.277 0.371,-0.273 0.384,-0.267C0.39,-0.265 0.396,-0.262 0.403,-0.26C0.409,-0.258 0.417,-0.257 0.423,-0.259C0.423,-0.259 0.405,-0.27 0.403,-0.271ZM0.258,-0.253L0.257,-0.25C0.289,-0.239 0.324,-0.235 0.357,-0.24L0.356,-0.243C0.324,-0.238 0.289,-0.242 0.258,-0.253ZM0.266,-0.283C0.262,-0.284 0.258,-0.283 0.254,-0.283C0.221,-0.283 0.188,-0.291 0.162,-0.307C0.156,-0.311 0.135,-0.321 0.141,-0.308C0.145,-0.298 0.168,-0.288 0.179,-0.284C0.204,-0.274 0.232,-0.269 0.26,-0.271C0.265,-0.272 0.27,-0.273 0.271,-0.276C0.272,-0.278 0.269,-0.281 0.266,-0.283ZM0.5,0.155L0.503,0.154C0.495,0.137 0.49,0.12 0.488,0.102L0.484,0.103C0.486,0.121 0.492,0.138 0.5,0.155ZM0.434,-0.084C0.42,-0.064 0.416,-0.041 0.422,-0.018L0.426,-0.019C0.42,-0.04 0.424,-0.063 0.438,-0.083L0.434,-0.084ZM0.966,0.452C0.936,0.471 0.894,0.473 0.856,0.474C0.777,0.474 0.698,0.466 0.622,0.451C0.578,0.443 0.53,0.428 0.514,0.397C0.49,0.35 0.555,0.299 0.54,0.25C0.532,0.223 0.503,0.204 0.479,0.183C0.404,0.117 0.377,0.023 0.411,-0.059C0.421,-0.085 0.436,-0.109 0.441,-0.135C0.447,-0.161 0.439,-0.191 0.412,-0.207C0.381,-0.226 0.337,-0.223 0.297,-0.226C0.165,-0.237 0.088,-0.319 0.07,-0.408C0.049,-0.403 0.024,-0.4 0.008,-0.415C-0.007,-0.429 -0.001,-0.453 0.021,-0.462C0.041,-0.47 0.067,-0.465 0.085,-0.454C0.102,-0.443 0.112,-0.427 0.12,-0.411C0.131,-0.386 0.14,-0.359 0.164,-0.34C0.218,-0.299 0.312,-0.315 0.385,-0.295C0.462,-0.275 0.508,-0.217 0.53,-0.16C0.552,-0.103 0.557,-0.042 0.584,0.014C0.632,0.114 0.746,0.188 0.861,0.252C0.906,0.277 0.953,0.302 0.981,0.338C1.008,0.374 1.009,0.425 0.966,0.452Z" style="fill:url(#_Linear4);fill-rule:nonzero;"/>
                    </g>
                    <g opacity="0.39">
                        <g transform="matrix(-935.437,2068.75,2068.75,935.437,2149.44,228.885)">
                            <path d="M0.221,-0.028L0.22,-0.03C0.212,-0.023 0.203,-0.02 0.194,-0.02L0.194,-0.019C0.203,-0.018 0.212,-0.022 0.221,-0.028ZM0.202,-0.042C0.212,-0.042 0.222,-0.045 0.232,-0.051C0.234,-0.052 0.236,-0.053 0.236,-0.055C0.237,-0.057 0.236,-0.059 0.234,-0.059C0.233,-0.06 0.232,-0.06 0.23,-0.059C0.221,-0.058 0.211,-0.056 0.202,-0.053C0.191,-0.05 0.192,-0.042 0.202,-0.042ZM0.262,-0.043L0.262,-0.044L0.247,-0.043L0.247,-0.042L0.262,-0.043ZM0.388,0.013C0.388,0.013 0.388,0.013 0.388,0.013C0.389,0.017 0.392,0.019 0.395,0.021C0.406,0.027 0.417,0.033 0.43,0.034C0.438,0.034 0.466,0.032 0.47,0.017C0.456,0.017 0.442,0.019 0.428,0.017C0.416,0.014 0.405,0.01 0.395,0.004C0.391,0.002 0.386,0.008 0.388,0.013ZM0.383,-0.026C0.358,-0.053 0.322,-0.067 0.284,-0.063L0.284,-0.061C0.322,-0.065 0.358,-0.052 0.383,-0.024L0.383,-0.026ZM0.467,-0.005L0.467,-0.006L0.453,-0.013L0.452,-0.011L0.467,-0.005ZM0.419,-0.051C0.419,-0.051 0.419,-0.051 0.419,-0.051C0.415,-0.055 0.41,-0.058 0.405,-0.06C0.401,-0.061 0.393,-0.066 0.39,-0.065C0.384,-0.063 0.387,-0.058 0.39,-0.055C0.396,-0.049 0.403,-0.043 0.411,-0.039C0.417,-0.035 0.424,-0.046 0.419,-0.051ZM0.486,-0.012C0.479,-0.02 0.472,-0.028 0.466,-0.036C0.459,-0.044 0.453,-0.053 0.446,-0.06C0.429,-0.079 0.413,-0.089 0.395,-0.092L0.395,-0.091C0.412,-0.088 0.428,-0.077 0.445,-0.059C0.452,-0.052 0.458,-0.043 0.465,-0.035C0.471,-0.027 0.478,-0.018 0.485,-0.011L0.486,-0.012ZM0.564,0.006L0.564,0.005C0.556,0.008 0.549,0.007 0.543,0.003L0.543,0.004C0.548,0.009 0.556,0.009 0.564,0.006ZM0.646,0.011C0.647,0.003 0.632,-0 0.628,-0.002C0.618,-0.006 0.609,-0.009 0.599,-0.011C0.598,-0.009 0.597,-0.006 0.598,-0.005C0.599,-0.003 0.6,-0.002 0.602,-0.001C0.614,0.005 0.631,0.013 0.646,0.011ZM0.623,-0.03C0.608,-0.033 0.591,-0.026 0.575,-0.02C0.573,-0.019 0.571,-0.018 0.569,-0.018C0.553,-0.011 0.532,-0.005 0.519,-0.015L0.518,-0.014C0.532,-0.003 0.553,-0.01 0.57,-0.016C0.571,-0.017 0.573,-0.018 0.575,-0.018C0.591,-0.025 0.608,-0.032 0.622,-0.028L0.623,-0.03ZM0.613,-0.043C0.618,-0.042 0.643,-0.044 0.642,-0.055C0.64,-0.068 0.617,-0.054 0.612,-0.049C0.611,-0.048 0.61,-0.047 0.61,-0.045C0.61,-0.044 0.612,-0.043 0.613,-0.043ZM0.673,-0.023C0.675,-0.022 0.688,-0.019 0.69,-0.022C0.696,-0.03 0.668,-0.038 0.665,-0.039C0.663,-0.039 0.661,-0.04 0.659,-0.039C0.658,-0.038 0.656,-0.036 0.656,-0.034C0.656,-0.033 0.657,-0.032 0.658,-0.031C0.662,-0.027 0.667,-0.025 0.673,-0.023ZM0.34,-0.097C0.338,-0.097 0.335,-0.097 0.333,-0.097C0.33,-0.096 0.317,-0.092 0.304,-0.087C0.3,-0.086 0.3,-0.078 0.305,-0.079C0.314,-0.083 0.323,-0.086 0.326,-0.086L0.339,-0.089C0.342,-0.09 0.343,-0.096 0.34,-0.097ZM0.248,-0.073L0.248,-0.071C0.254,-0.074 0.261,-0.075 0.267,-0.075L0.267,-0.076C0.261,-0.077 0.254,-0.076 0.248,-0.073ZM0.343,-0.023C0.351,-0.013 0.36,-0.005 0.371,-0L0.371,-0.002C0.361,-0.007 0.352,-0.014 0.344,-0.024L0.343,-0.023ZM0.177,-0.054C0.187,-0.072 0.196,-0.071 0.21,-0.074C0.247,-0.08 0.284,-0.104 0.32,-0.115C0.378,-0.133 0.435,-0.116 0.47,-0.072C0.483,-0.055 0.495,-0.033 0.514,-0.026C0.53,-0.02 0.55,-0.025 0.567,-0.034C0.585,-0.043 0.602,-0.057 0.619,-0.069C0.644,-0.088 0.672,-0.105 0.699,-0.111C0.726,-0.117 0.82,-0.067 0.835,-0.043C0.83,-0.038 0.729,-0.083 0.717,-0.088C0.711,-0.09 0.704,-0.092 0.697,-0.091C0.694,-0.09 0.69,-0.087 0.691,-0.084C0.691,-0.083 0.691,-0.082 0.692,-0.081C0.7,-0.07 0.71,-0.061 0.722,-0.057C0.722,-0.057 0.722,-0.057 0.722,-0.057C0.73,-0.054 0.734,-0.046 0.732,-0.039C0.727,-0.023 0.731,-0.004 0.735,0.016C0.741,0.047 0.71,0.072 0.681,0.06C0.65,0.048 0.616,0.035 0.604,0.031L0.604,0.033C0.622,0.039 0.69,0.091 0.72,0.112C0.725,0.116 0.727,0.124 0.724,0.13C0.724,0.13 0.724,0.13 0.724,0.13C0.719,0.139 0.709,0.141 0.702,0.134C0.669,0.106 0.602,0.048 0.581,0.037C0.557,0.025 0.528,0.019 0.498,0.028C0.467,0.037 0.435,0.061 0.407,0.054C0.387,0.05 0.374,0.031 0.36,0.016C0.342,-0.005 0.321,-0.021 0.296,-0.028C0.272,-0.035 0.243,-0.033 0.216,-0.017C0.204,-0.009 0.19,0.002 0.179,-0.003C0.164,-0.01 0.169,-0.037 0.177,-0.054Z" style="fill:url(#_Linear5);fill-rule:nonzero;"/>
                        </g>
                    </g>
                    <g transform="matrix(-745.462,652.94,652.94,745.462,2892.46,1120.53)">
                        <path d="M0.407,0.063C0.434,0.06 0.463,0.045 0.488,0.026C0.494,0.021 0.5,0.016 0.503,0.01C0.514,-0.009 0.493,-0.001 0.483,0.003C0.468,0.008 0.452,0.012 0.437,0.016C0.422,0.02 0.406,0.023 0.391,0.026C0.386,0.027 0.347,0.035 0.346,0.032C0.353,0.055 0.379,0.066 0.407,0.063ZM0.502,0.052L0.499,0.05C0.484,0.069 0.46,0.083 0.438,0.086L0.438,0.089C0.456,0.087 0.474,0.078 0.489,0.065C0.494,0.061 0.498,0.056 0.502,0.052ZM0.492,0.114C0.521,0.088 0.544,0.054 0.553,0.021L0.55,0.021C0.539,0.061 0.508,0.102 0.47,0.128L0.471,0.13C0.478,0.125 0.485,0.12 0.492,0.114ZM0.57,-0.054C0.572,-0.058 0.574,-0.062 0.576,-0.066C0.588,-0.09 0.614,-0.108 0.636,-0.127C0.64,-0.13 0.643,-0.135 0.638,-0.136C0.635,-0.137 0.625,-0.129 0.622,-0.127C0.608,-0.119 0.594,-0.11 0.582,-0.098C0.566,-0.083 0.555,-0.062 0.559,-0.045C0.563,-0.046 0.567,-0.05 0.57,-0.054ZM0.614,-0.034C0.624,-0.044 0.634,-0.054 0.644,-0.064C0.651,-0.071 0.661,-0.079 0.665,-0.087C0.652,-0.089 0.628,-0.064 0.619,-0.055C0.615,-0.051 0.611,-0.047 0.61,-0.043C0.608,-0.039 0.61,-0.034 0.614,-0.034ZM0.777,-0.156L0.778,-0.159C0.76,-0.157 0.742,-0.153 0.724,-0.146L0.724,-0.143C0.742,-0.15 0.76,-0.154 0.777,-0.156ZM0.85,-0.118C0.877,-0.111 0.91,-0.116 0.941,-0.132C0.968,-0.147 0.935,-0.152 0.926,-0.153C0.908,-0.155 0.89,-0.156 0.872,-0.155C0.864,-0.154 0.857,-0.153 0.85,-0.149C0.842,-0.145 0.836,-0.137 0.836,-0.131C0.836,-0.124 0.843,-0.12 0.85,-0.118ZM0.858,-0.201L0.858,-0.198C0.873,-0.201 0.887,-0.202 0.9,-0.2L0.902,-0.203C0.888,-0.205 0.873,-0.205 0.858,-0.201ZM1.012,-0.171L1.014,-0.174C1,-0.18 0.984,-0.182 0.967,-0.182L0.967,-0.179C0.983,-0.179 0.998,-0.176 1.012,-0.171ZM1.055,-0.225L1.056,-0.228C1.02,-0.234 0.979,-0.229 0.938,-0.214L0.939,-0.211C0.979,-0.226 1.019,-0.231 1.055,-0.225ZM0.299,0.203L0.267,0.162C0.215,0.097 0.262,0 0.345,-0L0.376,-0C0.421,-0 0.473,-0.004 0.51,-0.04C0.534,-0.064 0.545,-0.095 0.569,-0.119C0.6,-0.15 0.644,-0.158 0.684,-0.168C0.777,-0.19 0.87,-0.234 0.963,-0.255C1.008,-0.265 1.053,-0.27 1.095,-0.265C1.119,-0.262 1.193,-0.248 1.192,-0.218C1.191,-0.192 1.11,-0.143 1.086,-0.129C1.045,-0.103 1.001,-0.083 0.958,-0.08C0.924,-0.077 0.894,-0.085 0.863,-0.089C0.818,-0.094 0.771,-0.093 0.723,-0.084C0.692,-0.078 0.658,-0.067 0.633,-0.042C0.606,-0.014 0.6,0.023 0.589,0.057C0.57,0.116 0.529,0.174 0.476,0.218C0.453,0.237 0.426,0.254 0.4,0.259C0.353,0.266 0.323,0.234 0.299,0.203Z" style="fill:url(#_Linear6);fill-rule:nonzero;"/>
                    </g>
                    <g transform="matrix(-720.451,1155.38,1155.38,720.451,1641,417.22)">
                        <path d="M0.234,0.042L0.235,0.039C0.226,0.039 0.218,0.041 0.209,0.045L0.21,0.048C0.218,0.044 0.226,0.042 0.234,0.042ZM0.317,0.035L0.318,0.032C0.307,0.029 0.296,0.028 0.284,0.029L0.283,0.032C0.295,0.031 0.306,0.032 0.317,0.035ZM0.338,0.045L0.339,0.043L0.332,0.039L0.331,0.041L0.338,0.045ZM0.387,0.053L0.388,0.051L0.38,0.045L0.378,0.048L0.387,0.053ZM0.491,0.11L0.492,0.107C0.471,0.1 0.452,0.089 0.435,0.076L0.433,0.078C0.451,0.091 0.47,0.102 0.491,0.11ZM0.532,0.125L0.533,0.122L0.516,0.116L0.515,0.118L0.532,0.125ZM0.391,0.037L0.39,0.039C0.403,0.044 0.415,0.051 0.427,0.059L0.428,0.057C0.417,0.048 0.404,0.042 0.391,0.037ZM0.514,0.082C0.506,0.074 0.494,0.069 0.484,0.063C0.483,0.062 0.482,0.062 0.48,0.062C0.479,0.062 0.477,0.063 0.477,0.065C0.476,0.067 0.478,0.068 0.479,0.069C0.489,0.076 0.501,0.081 0.514,0.082ZM0.644,0.134L0.645,0.131C0.626,0.133 0.608,0.13 0.592,0.124L0.591,0.126C0.608,0.133 0.625,0.135 0.644,0.134ZM0.693,0.105C0.698,0.104 0.702,0.102 0.707,0.101C0.712,0.1 0.718,0.098 0.721,0.092C0.715,0.086 0.7,0.091 0.692,0.095C0.689,0.097 0.686,0.1 0.686,0.103C0.687,0.106 0.69,0.106 0.693,0.105ZM0.818,0.03C0.834,0.018 0.851,0.005 0.869,-0.001L0.869,-0.003C0.851,0.003 0.834,0.016 0.817,0.028C0.8,0.041 0.782,0.055 0.763,0.06L0.763,0.062C0.782,0.057 0.801,0.043 0.818,0.03ZM0.871,0.04C0.876,0.039 0.892,0.034 0.893,0.028C0.894,0.012 0.854,0.035 0.849,0.04C0.849,0.039 0.868,0.041 0.871,0.04ZM0.987,-0.067L0.988,-0.069C0.965,-0.073 0.936,-0.064 0.912,-0.046L0.913,-0.044C0.937,-0.062 0.964,-0.071 0.987,-0.067ZM0.272,0.022C0.34,0.01 0.407,0.015 0.465,0.038C0.506,0.053 0.543,0.077 0.588,0.08C0.646,0.084 0.71,0.052 0.769,0.014C0.828,-0.025 0.884,-0.072 0.945,-0.104C1.005,-0.137 1.073,-0.154 1.122,-0.128C1.127,-0.126 1.133,-0.122 1.134,-0.115C1.136,-0.106 1.129,-0.095 1.123,-0.085C1.098,-0.048 1.074,-0.01 1.05,0.028C1.023,0.01 0.994,-0.006 0.961,-0.01C0.956,-0.01 0.951,-0.01 0.947,-0.007C0.943,-0.003 0.941,0.003 0.941,0.008C0.941,0.013 0.943,0.018 0.945,0.022C0.96,0.051 0.989,0.066 1.021,0.071C1.008,0.092 0.995,0.112 0.982,0.132C0.953,0.079 0.89,0.057 0.826,0.079C0.778,0.096 0.733,0.134 0.685,0.151C0.653,0.163 0.622,0.165 0.592,0.161C0.59,0.151 0.583,0.141 0.578,0.137C0.571,0.133 0.564,0.129 0.555,0.131C0.548,0.132 0.54,0.139 0.537,0.146C0.524,0.141 0.51,0.135 0.497,0.128C0.443,0.1 0.392,0.062 0.329,0.052C0.246,0.038 0.155,0.072 0.067,0.107C0.136,0.068 0.2,0.035 0.272,0.022Z" style="fill:url(#_Linear7);fill-rule:nonzero;"/>
                    </g>
                </g>
            </g>
        </g>
    </g>
    <defs>
        <linearGradient id="_Linear1" x1="0" y1="0" x2="1" y2="0" gradientUnits="userSpaceOnUse" gradientTransform="matrix(1,0,0,-1,0,0.00888891)"><stop offset="0" style="stop-color:rgb(77,29,143);stop-opacity:1"/><stop offset="1" style="stop-color:rgb(77,29,143);stop-opacity:1"/></linearGradient>
        <linearGradient id="_Linear2" x1="0" y1="0" x2="1" y2="0" gradientUnits="userSpaceOnUse" gradientTransform="matrix(1,5.55112e-17,5.55112e-17,-1,0,0.0156816)"><stop offset="0" style="stop-color:rgb(191,122,255);stop-opacity:1"/><stop offset="0.01" style="stop-color:rgb(191,122,255);stop-opacity:1"/><stop offset="1" style="stop-color:rgb(191,122,255);stop-opacity:1"/></linearGradient>
        <linearGradient id="_Linear3" x1="0" y1="0" x2="1" y2="0" gradientUnits="userSpaceOnUse" gradientTransform="matrix(1,0,0,-1,0,0.000195753)"><stop offset="0" style="stop-color:rgb(241,105,217);stop-opacity:1"/><stop offset="0.96" style="stop-color:rgb(241,105,217);stop-opacity:1"/><stop offset="1" style="stop-color:rgb(241,105,217);stop-opacity:1"/></linearGradient>
        <linearGradient id="_Linear4" x1="0" y1="0" x2="1" y2="0" gradientUnits="userSpaceOnUse" gradientTransform="matrix(1,0,0,-1,0,0.00384616)"><stop offset="0" style="stop-color:rgb(77,29,143);stop-opacity:1"/><stop offset="1" style="stop-color:rgb(77,29,143);stop-opacity:1"/></linearGradient>
        <linearGradient id="_Linear5" x1="0" y1="0" x2="1" y2="0" gradientUnits="userSpaceOnUse" gradientTransform="matrix(1,0,0,-1,0,0.00800914)"><stop offset="0" style="stop-color:rgb(241,105,217);stop-opacity:1"/><stop offset="0.04" style="stop-color:rgb(241,105,217);stop-opacity:1"/><stop offset="1" style="stop-color:rgb(241,105,217);stop-opacity:1"/></linearGradient>
        <linearGradient id="_Linear6" x1="0" y1="0" x2="1" y2="0" gradientUnits="userSpaceOnUse" gradientTransform="matrix(1,-5.55112e-17,-5.55112e-17,-1,0,-0.00346166)"><stop offset="0" style="stop-color:rgb(241,105,217);stop-opacity:1"/><stop offset="0.04" style="stop-color:rgb(241,105,217);stop-opacity:1"/><stop offset="1" style="stop-color:rgb(241,105,217);stop-opacity:1"/></linearGradient>
        <linearGradient id="_Linear7" x1="0" y1="0" x2="1" y2="0" gradientUnits="userSpaceOnUse" gradientTransform="matrix(1,-5.55112e-17,-5.55112e-17,-1,0,0.0109692)"><stop offset="0" style="stop-color:rgb(191,122,255);stop-opacity:1"/><stop offset="0.01" style="stop-color:rgb(191,122,255);stop-opacity:1"/><stop offset="1" style="stop-color:rgb(191,122,255);stop-opacity:1"/></linearGradient>
    </defs>
</svg>
