<?xml version="1.0" encoding="UTF-8" standalone="no"?>
<!DOCTYPE svg PUBLIC "-//W3C//DTD SVG 1.1//EN" "http://www.w3.org/Graphics/SVG/1.1/DTD/svg11.dtd">
<svg width="100%" height="100%" viewBox="0 0 8881 5243" version="1.1" xmlns="http://www.w3.org/2000/svg" xmlns:xlink="http://www.w3.org/1999/xlink" xml:space="preserve" xmlns:serif="http://www.serif.com/" style="fill-rule:evenodd;clip-rule:evenodd;stroke-linejoin:round;stroke-miterlimit:2;">
    <g transform="matrix(1,0,0,1,-13059.7,7842.35)">
        <g transform="matrix(4.16667,0,0,4.16667,13376.8,-7439.52)">
            <g id="gas2">
                <g opacity="0.28">
                    <g transform="matrix(-581.315,980.569,980.569,581.315,1701.21,124.334)">
                        <path d="M0.016,0.051C0.018,0.048 0.019,0.044 0.02,0.041C0.021,0.037 0.02,0.034 0.018,0.032C0.01,0.04 0.006,0.052 -0.001,0.061C-0.005,0.067 -0.01,0.074 -0.013,0.081C-0.016,0.088 -0.017,0.097 -0.013,0.101C-0.003,0.085 0.008,0.068 0.016,0.051ZM0.203,0.016L0.205,0.014C0.178,-0.014 0.133,-0.019 0.091,0.001L0.092,0.003C0.133,-0.016 0.176,-0.011 0.203,0.016ZM0.287,0.065C0.299,0.058 0.336,0.036 0.337,0.018C0.306,0.03 0.278,0.044 0.247,0.046C0.242,0.046 0.236,0.047 0.234,0.052C0.233,0.056 0.234,0.06 0.236,0.062C0.248,0.075 0.268,0.074 0.287,0.065ZM0.335,-0.02L0.335,-0.023C0.312,-0.015 0.289,-0.016 0.271,-0.026L0.269,-0.024C0.288,-0.013 0.312,-0.012 0.335,-0.02ZM0.221,-0.053L0.223,-0.055C0.212,-0.064 0.199,-0.069 0.185,-0.073L0.184,-0.07C0.198,-0.066 0.21,-0.061 0.221,-0.053ZM0.081,-0.043L0.083,-0.041C0.106,-0.073 0.14,-0.096 0.172,-0.104L0.172,-0.107C0.139,-0.099 0.105,-0.075 0.081,-0.043ZM0.507,0.052C0.517,0.042 0.488,0.033 0.485,0.032C0.487,0.033 0.49,0.045 0.493,0.047C0.495,0.049 0.504,0.055 0.507,0.052ZM0.545,0.073C0.553,0.075 0.562,0.074 0.571,0.071C0.575,0.07 0.581,0.066 0.58,0.06C0.579,0.055 0.569,0.055 0.565,0.055C0.553,0.053 0.539,0.054 0.525,0.059C0.529,0.067 0.537,0.071 0.545,0.073ZM0.404,-0.04L0.403,-0.037C0.429,-0.027 0.453,-0.014 0.476,0.002L0.478,-0.001C0.455,-0.017 0.43,-0.03 0.404,-0.04ZM0.608,0.037L0.609,0.034C0.577,0.036 0.548,0.029 0.524,0.012L0.522,0.014C0.546,0.031 0.576,0.039 0.608,0.037ZM0.702,0.009L0.7,0.007C0.675,0.035 0.644,0.054 0.614,0.062L0.613,0.064C0.645,0.057 0.676,0.037 0.702,0.009ZM0.612,-0.002C0.612,-0.002 0.627,0.006 0.63,0.006C0.634,0.007 0.649,0.006 0.652,-0C0.661,-0.017 0.618,-0.006 0.612,-0.002ZM0.335,-0.111C0.337,-0.112 0.361,-0.097 0.365,-0.096C0.375,-0.092 0.387,-0.089 0.398,-0.087C0.403,-0.086 0.423,-0.08 0.419,-0.092C0.418,-0.095 0.408,-0.099 0.405,-0.101C0.4,-0.105 0.395,-0.109 0.39,-0.112C0.374,-0.12 0.353,-0.124 0.335,-0.111ZM0.469,-0.029C0.471,-0.028 0.474,-0.029 0.476,-0.032C0.476,-0.032 0.476,-0.032 0.476,-0.032C0.477,-0.034 0.477,-0.036 0.476,-0.037C0.476,-0.038 0.475,-0.039 0.473,-0.038L0.473,-0.036C0.474,-0.036 0.474,-0.035 0.474,-0.035C0.474,-0.035 0.474,-0.034 0.474,-0.033C0.473,-0.032 0.472,-0.031 0.47,-0.032C0.469,-0.032 0.468,-0.033 0.466,-0.034L0.455,-0.047C0.461,-0.046 0.467,-0.043 0.471,-0.038L0.473,-0.041C0.468,-0.047 0.46,-0.05 0.452,-0.05L0.448,-0.05L0.464,-0.032C0.466,-0.031 0.467,-0.029 0.469,-0.029ZM0.768,-0.069C0.761,-0.069 0.754,-0.065 0.748,-0.061C0.744,-0.058 0.734,-0.045 0.731,-0.044C0.742,-0.047 0.765,-0.053 0.768,-0.069ZM0.845,-0.086L0.845,-0.089C0.826,-0.083 0.807,-0.073 0.788,-0.06L0.789,-0.058C0.807,-0.071 0.826,-0.08 0.845,-0.086ZM0.986,-0.091L0.988,-0.094C0.971,-0.109 0.949,-0.117 0.924,-0.117L0.924,-0.114C0.948,-0.114 0.969,-0.106 0.986,-0.091ZM0.049,-0.034C0.103,-0.096 0.168,-0.148 0.236,-0.166C0.315,-0.188 0.388,-0.162 0.439,-0.11C0.463,-0.086 0.483,-0.057 0.512,-0.041C0.559,-0.015 0.623,-0.028 0.682,-0.052C0.741,-0.076 0.799,-0.109 0.858,-0.125C0.917,-0.14 0.98,-0.134 1.011,-0.087C0.999,-0.075 1.001,-0.073 0.989,-0.06C0.917,-0.087 0.825,-0.068 0.746,-0.01C0.709,0.018 0.675,0.054 0.636,0.076C0.585,0.105 0.53,0.106 0.491,0.08C0.472,0.066 0.458,0.047 0.439,0.033C0.421,0.02 0.397,0.011 0.371,0.021C0.331,0.038 0.3,0.095 0.26,0.103C0.22,0.11 0.201,0.062 0.169,0.045C0.136,0.026 0.087,0.044 0.049,0.077C0.012,0.11 -0.016,0.156 -0.04,0.202C-0.054,0.194 -0.071,0.184 -0.085,0.176C-0.046,0.102 -0.004,0.029 0.049,-0.034Z" style="fill:url(#_Linear1);fill-rule:nonzero;"/>
                    </g>
                    <g transform="matrix(1,0,0,1,1053.12,798.99)">
                        <path d="M0,23.778C3.666,16.226 4.896,7.966 3.577,0C-0.593,7.492 -1.861,15.777 0,23.778" style="fill:rgb(191,122,255);fill-rule:nonzero;"/>
                    </g>
                    <g transform="matrix(-952.8,1180.98,1180.98,952.8,1831.58,-299.613)">
                        <path d="M0.348,-0.021L0.348,-0.023C0.321,-0.014 0.296,-0.001 0.271,0.017L0.272,0.019C0.296,0.001 0.322,-0.012 0.348,-0.021ZM0.384,-0.063C0.392,-0.072 0.378,-0.074 0.373,-0.069C0.369,-0.065 0.365,-0.062 0.361,-0.058C0.366,-0.056 0.379,-0.056 0.384,-0.063ZM0.462,-0.095L0.463,-0.098C0.434,-0.108 0.4,-0.107 0.365,-0.093L0.365,-0.091C0.399,-0.105 0.433,-0.106 0.462,-0.095ZM0.477,-0.055L0.479,-0.057C0.467,-0.066 0.453,-0.072 0.438,-0.074L0.437,-0.072C0.452,-0.07 0.466,-0.064 0.477,-0.055ZM0.542,-0.052C0.553,-0.075 0.51,-0.088 0.497,-0.088C0.494,-0.088 0.492,-0.087 0.489,-0.085C0.485,-0.081 0.487,-0.075 0.489,-0.072C0.494,-0.064 0.53,-0.024 0.542,-0.052ZM0.624,0.003L0.622,0.005L0.631,0.012L0.633,0.01L0.624,0.003ZM0.713,0.074C0.721,0.076 0.73,0.076 0.739,0.071C0.724,0.065 0.71,0.06 0.695,0.054C0.684,0.049 0.67,0.04 0.657,0.039C0.661,0.058 0.695,0.072 0.713,0.074ZM0.617,-0.022L0.615,-0.02L0.644,0.004L0.646,0.002L0.617,-0.022ZM0.782,0.073L0.783,0.071C0.776,0.071 0.769,0.07 0.763,0.068L0.762,0.07C0.768,0.072 0.775,0.073 0.782,0.073ZM0.789,0.045L0.747,0.045L0.746,0.047L0.788,0.047L0.789,0.045ZM0.827,0.065C0.833,0.065 0.841,0.064 0.848,0.062C0.842,0.058 0.833,0.056 0.824,0.058C0.821,0.058 0.818,0.06 0.819,0.063C0.819,0.065 0.825,0.065 0.827,0.065ZM0.898,0.068L0.899,0.065C0.899,0.065 0.898,0.065 0.898,0.065L0.9,0.064C0.896,0.058 0.889,0.055 0.882,0.055L0.879,0.055L0.881,0.057C0.885,0.062 0.891,0.066 0.898,0.068ZM0.947,0.076L0.949,0.074L0.937,0.064L0.935,0.066L0.947,0.076ZM0.178,0.055C0.179,0.053 0.18,0.05 0.18,0.048C0.23,0.026 0.282,-0.013 0.322,-0.052C0.319,-0.049 0.304,-0.047 0.3,-0.046C0.292,-0.043 0.283,-0.04 0.275,-0.037C0.26,-0.03 0.244,-0.022 0.229,-0.012C0.214,-0.003 0.2,0.008 0.187,0.02C0.188,0.016 0.189,0.012 0.19,0.008C0.192,-0.001 0.193,-0.018 0.2,-0.026C0.213,-0.044 0.386,-0.17 0.484,-0.127C0.532,-0.106 0.586,-0.057 0.629,-0.027C0.778,0.074 0.943,0.004 1.04,0.129C0.794,-0.018 0.796,0.191 0.603,0.013C0.565,-0.021 0.484,-0.027 0.426,-0.018C0.332,-0.003 0.172,0.126 0.092,0.205C0.098,0.199 0.175,0.069 0.178,0.055Z" style="fill:url(#_Linear2);fill-rule:nonzero;"/>
                    </g>
                    <g transform="matrix(45.6241,-465.366,-465.366,-45.6241,142.12,301.049)">
                        <path d="M0.385,-0.189C0.345,-0.182 0.306,-0.161 0.272,-0.129C0.254,-0.113 0.241,-0.09 0.225,-0.072C0.221,-0.068 0.191,-0.038 0.218,-0.044C0.222,-0.045 0.226,-0.048 0.23,-0.051C0.272,-0.085 0.321,-0.103 0.369,-0.104C0.384,-0.104 0.398,-0.102 0.412,-0.109C0.426,-0.116 0.439,-0.133 0.439,-0.152C0.438,-0.168 0.429,-0.181 0.419,-0.186C0.408,-0.191 0.396,-0.191 0.385,-0.189ZM0.499,-0.001C0.501,0.01 0.557,0.026 0.566,0.03C0.589,0.04 0.612,0.053 0.635,0.058C0.688,0.071 0.642,-0.017 0.62,-0.032C0.593,-0.05 0.561,-0.049 0.53,-0.041C0.522,-0.039 0.514,-0.036 0.508,-0.029C0.501,-0.022 0.497,-0.011 0.499,-0.001ZM0.066,0.152L0.071,0.156C0.101,0.103 0.136,0.056 0.176,0.016L0.172,0.01C0.132,0.05 0.097,0.098 0.066,0.152ZM0.656,-0.118L0.657,-0.125C0.61,-0.135 0.561,-0.137 0.513,-0.133L0.513,-0.125C0.561,-0.13 0.609,-0.127 0.656,-0.118ZM0.578,0.163C0.608,0.093 0.48,0.085 0.478,0.071C0.483,0.102 0.553,0.223 0.578,0.163ZM0.783,-0.337C0.78,-0.177 0.777,-0.016 0.773,0.144C0.773,0.161 0.772,0.18 0.767,0.196C0.756,0.23 0.727,0.246 0.701,0.255C0.627,0.278 0.549,0.259 0.488,0.204C0.452,0.171 0.423,0.126 0.389,0.089C0.354,0.053 0.311,0.025 0.266,0.034C0.193,0.048 0.147,0.149 0.088,0.214C0.02,0.29 -0.074,0.319 -0.155,0.289L-0.189,0.287C-0.119,0.278 -0.051,0.221 0.001,0.151C0.066,0.063 0.114,-0.045 0.175,-0.137C0.236,-0.23 0.318,-0.311 0.406,-0.312C0.452,-0.313 0.495,-0.292 0.538,-0.273C0.58,-0.254 0.625,-0.235 0.67,-0.24C0.716,-0.245 0.764,-0.279 0.783,-0.337Z" style="fill:url(#_Linear3);fill-rule:nonzero;"/>
                    </g>
                    <g transform="matrix(930.508,0,0,-930.508,-76.106,344.064)">
                        <path d="M0.862,0.316C0.828,0.277 0.784,0.243 0.733,0.216C0.747,0.223 0.757,0.245 0.767,0.255C0.78,0.268 0.793,0.281 0.807,0.293C0.821,0.305 0.835,0.318 0.851,0.329C0.875,0.345 0.876,0.333 0.862,0.316ZM0.686,0.315C0.681,0.297 0.674,0.281 0.665,0.264C0.659,0.252 0.653,0.24 0.641,0.231C0.63,0.222 0.611,0.217 0.595,0.222C0.612,0.244 0.628,0.267 0.64,0.291C0.649,0.309 0.654,0.329 0.654,0.349C0.654,0.354 0.65,0.366 0.662,0.366C0.671,0.365 0.681,0.354 0.684,0.348C0.689,0.338 0.688,0.326 0.686,0.315ZM0.542,0.044L0.54,0.046C0.567,0.065 0.589,0.088 0.604,0.113L0.608,0.111C0.593,0.086 0.57,0.063 0.542,0.044ZM0.545,0.154C0.547,0.163 0.551,0.173 0.562,0.174C0.569,0.175 0.575,0.173 0.579,0.17C0.583,0.166 0.585,0.162 0.587,0.157C0.593,0.14 0.589,0.12 0.576,0.104C0.572,0.1 0.568,0.096 0.562,0.094C0.529,0.08 0.543,0.142 0.545,0.154ZM0.566,0.361C0.566,0.361 0.566,0.36 0.567,0.36C0.567,0.361 0.567,0.362 0.568,0.363C0.567,0.362 0.567,0.361 0.567,0.36C0.59,0.35 0.6,0.326 0.589,0.308C0.567,0.319 0.557,0.342 0.567,0.36C0.566,0.36 0.566,0.361 0.566,0.361ZM0.528,-0.089C0.528,-0.099 0.511,-0.153 0.489,-0.143C0.47,-0.134 0.481,-0.079 0.481,-0.065C0.481,-0.061 0.481,-0.055 0.486,-0.052C0.491,-0.049 0.499,-0.05 0.505,-0.052C0.522,-0.058 0.529,-0.074 0.528,-0.089ZM0.473,0.023C0.468,0.02 0.463,0.018 0.458,0.019C0.452,0.019 0.466,0.039 0.468,0.04C0.473,0.044 0.489,0.048 0.486,0.038C0.486,0.036 0.484,0.034 0.483,0.032C0.48,0.029 0.477,0.025 0.473,0.023ZM0.475,-0.028L0.471,-0.028L0.471,-0.002L0.475,-0.002L0.475,-0.028ZM0.473,-0.167L0.469,-0.167L0.469,-0.152L0.473,-0.152L0.473,-0.167ZM0.439,-0.234L0.436,-0.232C0.448,-0.224 0.456,-0.213 0.459,-0.201L0.463,-0.202C0.459,-0.214 0.451,-0.225 0.439,-0.234ZM0.403,-0.271C0.395,-0.275 0.387,-0.278 0.378,-0.28C0.369,-0.282 0.36,-0.283 0.351,-0.283C0.349,-0.283 0.328,-0.284 0.337,-0.28C0.338,-0.279 0.34,-0.279 0.342,-0.279C0.357,-0.277 0.371,-0.273 0.384,-0.267C0.39,-0.265 0.396,-0.262 0.403,-0.26C0.409,-0.258 0.417,-0.257 0.423,-0.259C0.423,-0.259 0.405,-0.27 0.403,-0.271ZM0.258,-0.253L0.257,-0.25C0.289,-0.239 0.324,-0.235 0.357,-0.24L0.356,-0.243C0.324,-0.238 0.289,-0.242 0.258,-0.253ZM0.266,-0.283C0.262,-0.284 0.258,-0.283 0.254,-0.283C0.221,-0.283 0.188,-0.291 0.162,-0.307C0.156,-0.311 0.135,-0.321 0.141,-0.308C0.145,-0.298 0.168,-0.288 0.179,-0.284C0.204,-0.274 0.232,-0.269 0.26,-0.271C0.265,-0.272 0.27,-0.273 0.271,-0.276C0.272,-0.278 0.269,-0.281 0.266,-0.283ZM0.5,0.155L0.503,0.154C0.495,0.137 0.49,0.12 0.488,0.102L0.484,0.103C0.486,0.121 0.492,0.138 0.5,0.155ZM0.434,-0.084C0.42,-0.064 0.416,-0.041 0.422,-0.018L0.426,-0.019C0.42,-0.04 0.424,-0.063 0.438,-0.083L0.434,-0.084ZM0.966,0.452C0.936,0.471 0.894,0.473 0.856,0.474C0.777,0.474 0.698,0.466 0.622,0.451C0.578,0.443 0.53,0.428 0.514,0.397C0.49,0.35 0.555,0.299 0.54,0.25C0.532,0.223 0.503,0.204 0.479,0.183C0.404,0.117 0.377,0.023 0.411,-0.059C0.421,-0.085 0.436,-0.109 0.441,-0.135C0.447,-0.161 0.439,-0.191 0.412,-0.207C0.381,-0.226 0.337,-0.223 0.297,-0.226C0.165,-0.237 0.088,-0.319 0.07,-0.408C0.049,-0.403 0.024,-0.4 0.008,-0.415C-0.007,-0.429 -0.001,-0.453 0.021,-0.462C0.041,-0.47 0.067,-0.465 0.085,-0.454C0.102,-0.443 0.112,-0.427 0.12,-0.411C0.131,-0.386 0.14,-0.359 0.164,-0.34C0.218,-0.299 0.312,-0.315 0.385,-0.295C0.462,-0.275 0.508,-0.217 0.53,-0.16C0.552,-0.103 0.557,-0.042 0.584,0.014C0.632,0.114 0.746,0.188 0.861,0.252C0.906,0.277 0.953,0.302 0.981,0.338C1.008,0.374 1.009,0.425 0.966,0.452Z" style="fill:url(#_Linear4);fill-rule:nonzero;"/>
                    </g>
                    <g opacity="0.39">
                        <g transform="matrix(-843.529,1865.5,1865.5,843.529,1329.76,-345.99)">
                            <path d="M0.227,-0.001L0.226,-0.003C0.217,0.005 0.206,0.008 0.197,0.008L0.197,0.009C0.206,0.01 0.217,0.006 0.227,-0.001ZM0.205,-0.017C0.216,-0.017 0.228,-0.02 0.239,-0.026C0.241,-0.027 0.243,-0.029 0.244,-0.031C0.244,-0.033 0.243,-0.035 0.242,-0.036C0.24,-0.036 0.238,-0.036 0.237,-0.036C0.226,-0.034 0.216,-0.031 0.205,-0.028C0.193,-0.025 0.195,-0.017 0.205,-0.017ZM0.272,-0.017L0.273,-0.019L0.256,-0.018L0.255,-0.016L0.272,-0.017ZM0.412,0.045C0.412,0.045 0.412,0.045 0.412,0.045C0.413,0.049 0.417,0.051 0.42,0.053C0.432,0.06 0.444,0.067 0.458,0.068C0.468,0.068 0.498,0.066 0.503,0.049C0.487,0.05 0.472,0.052 0.456,0.049C0.443,0.046 0.431,0.041 0.42,0.035C0.416,0.032 0.41,0.039 0.412,0.045ZM0.407,0.002C0.379,-0.029 0.339,-0.044 0.297,-0.039L0.297,-0.038C0.338,-0.042 0.378,-0.027 0.406,0.003L0.407,0.002ZM0.499,0.025L0.5,0.024L0.484,0.016L0.483,0.018L0.499,0.025ZM0.447,-0.026C0.447,-0.026 0.447,-0.026 0.446,-0.026C0.442,-0.031 0.436,-0.034 0.43,-0.036C0.427,-0.037 0.418,-0.043 0.414,-0.042C0.408,-0.039 0.411,-0.034 0.414,-0.031C0.421,-0.024 0.429,-0.018 0.438,-0.013C0.444,-0.009 0.452,-0.021 0.447,-0.026ZM0.52,0.017C0.512,0.009 0.505,-0.001 0.498,-0.01C0.491,-0.019 0.484,-0.028 0.476,-0.037C0.457,-0.057 0.439,-0.069 0.42,-0.072L0.419,-0.07C0.438,-0.067 0.457,-0.056 0.475,-0.035C0.483,-0.027 0.49,-0.018 0.497,-0.009C0.504,0 0.511,0.01 0.519,0.019L0.52,0.017ZM0.607,0.037L0.607,0.035C0.599,0.039 0.59,0.038 0.584,0.033L0.583,0.035C0.59,0.04 0.598,0.041 0.607,0.037ZM0.698,0.042C0.699,0.033 0.683,0.03 0.678,0.028C0.667,0.024 0.657,0.021 0.646,0.018C0.644,0.02 0.644,0.023 0.645,0.025C0.645,0.027 0.647,0.028 0.649,0.029C0.662,0.036 0.681,0.045 0.698,0.042ZM0.672,-0.003C0.656,-0.007 0.637,0.001 0.619,0.008C0.617,0.009 0.615,0.01 0.613,0.011C0.595,0.018 0.572,0.025 0.557,0.013L0.556,0.015C0.571,0.027 0.595,0.02 0.613,0.012C0.615,0.011 0.617,0.011 0.619,0.01C0.637,0.003 0.656,-0.005 0.672,-0.001L0.672,-0.003ZM0.661,-0.017C0.667,-0.016 0.695,-0.018 0.693,-0.031C0.692,-0.045 0.666,-0.03 0.66,-0.024C0.659,-0.023 0.658,-0.021 0.658,-0.02C0.658,-0.018 0.66,-0.017 0.661,-0.017ZM0.728,0.005C0.73,0.005 0.745,0.01 0.747,0.006C0.753,-0.003 0.722,-0.012 0.719,-0.013C0.717,-0.013 0.715,-0.014 0.713,-0.013C0.711,-0.012 0.709,-0.009 0.709,-0.007C0.709,-0.006 0.71,-0.005 0.711,-0.004C0.716,-0 0.722,0.003 0.728,0.005ZM0.358,-0.077C0.356,-0.077 0.353,-0.077 0.351,-0.077C0.347,-0.076 0.333,-0.072 0.319,-0.067C0.314,-0.065 0.315,-0.056 0.32,-0.058C0.33,-0.061 0.34,-0.065 0.343,-0.065L0.357,-0.068C0.361,-0.07 0.362,-0.077 0.358,-0.077ZM0.257,-0.05L0.257,-0.049C0.264,-0.052 0.271,-0.053 0.277,-0.053L0.278,-0.054C0.271,-0.055 0.264,-0.053 0.257,-0.05ZM0.362,0.005C0.371,0.016 0.381,0.024 0.393,0.03L0.393,0.028C0.382,0.023 0.372,0.014 0.364,0.004L0.362,0.005ZM0.178,-0.029C0.189,-0.049 0.199,-0.049 0.215,-0.052C0.256,-0.059 0.296,-0.085 0.337,-0.098C0.4,-0.117 0.463,-0.098 0.502,-0.05C0.518,-0.03 0.53,-0.006 0.552,0.002C0.57,0.008 0.591,0.003 0.611,-0.007C0.63,-0.018 0.649,-0.033 0.668,-0.046C0.696,-0.067 0.726,-0.087 0.757,-0.093C0.787,-0.1 0.818,-0.093 0.835,-0.067C0.829,-0.061 0.824,-0.055 0.818,-0.049C0.806,-0.058 0.79,-0.062 0.777,-0.067C0.77,-0.07 0.763,-0.072 0.755,-0.07C0.751,-0.069 0.747,-0.066 0.747,-0.063C0.748,-0.061 0.748,-0.061 0.749,-0.06C0.758,-0.048 0.769,-0.037 0.782,-0.032C0.788,-0.031 0.795,-0.029 0.802,-0.03C0.77,0.009 0.741,0.051 0.716,0.096C0.696,0.083 0.675,0.073 0.652,0.065L0.651,0.066C0.674,0.074 0.695,0.085 0.716,0.098C0.71,0.108 0.705,0.118 0.7,0.128C0.677,0.107 0.653,0.086 0.626,0.072C0.599,0.058 0.567,0.051 0.534,0.061C0.5,0.071 0.464,0.098 0.433,0.091C0.411,0.086 0.396,0.065 0.381,0.047C0.361,0.025 0.338,0.007 0.31,-0.001C0.283,-0.009 0.251,-0.006 0.221,0.012C0.208,0.02 0.192,0.032 0.18,0.027C0.163,0.019 0.169,-0.011 0.178,-0.029Z" style="fill:url(#_Linear5);fill-rule:nonzero;"/>
                        </g>
                    </g>
                    <g transform="matrix(-828.365,725.554,725.554,828.365,2243.55,450.281)">
                        <path d="M0.485,0.057C0.51,0.054 0.536,0.04 0.559,0.023C0.564,0.019 0.569,0.015 0.572,0.009C0.582,-0.008 0.563,-0.001 0.554,0.003C0.54,0.007 0.526,0.011 0.512,0.014C0.499,0.018 0.485,0.021 0.471,0.023C0.467,0.024 0.432,0.032 0.431,0.029C0.437,0.05 0.46,0.059 0.485,0.057ZM0.571,0.047L0.569,0.045C0.555,0.062 0.533,0.075 0.514,0.077L0.513,0.08C0.529,0.078 0.546,0.07 0.56,0.058C0.564,0.055 0.567,0.051 0.571,0.047ZM0.562,0.102C0.589,0.079 0.609,0.049 0.617,0.019L0.614,0.019C0.604,0.055 0.577,0.092 0.542,0.115L0.543,0.117C0.55,0.113 0.556,0.108 0.562,0.102ZM0.632,-0.049C0.634,-0.052 0.636,-0.056 0.638,-0.059C0.649,-0.081 0.672,-0.097 0.692,-0.114C0.695,-0.117 0.698,-0.121 0.694,-0.122C0.691,-0.123 0.681,-0.116 0.679,-0.114C0.666,-0.107 0.653,-0.099 0.643,-0.088C0.629,-0.074 0.619,-0.055 0.622,-0.041C0.626,-0.042 0.63,-0.045 0.632,-0.049ZM0.672,-0.031C0.681,-0.04 0.69,-0.049 0.699,-0.058C0.705,-0.064 0.715,-0.071 0.718,-0.078C0.706,-0.08 0.684,-0.058 0.676,-0.049C0.673,-0.046 0.669,-0.043 0.668,-0.039C0.667,-0.035 0.668,-0.031 0.672,-0.031ZM0.819,-0.14L0.819,-0.143C0.803,-0.142 0.787,-0.138 0.771,-0.132L0.771,-0.129C0.787,-0.135 0.803,-0.139 0.819,-0.14ZM0.884,-0.107C0.908,-0.1 0.938,-0.104 0.966,-0.119C0.991,-0.132 0.961,-0.136 0.952,-0.138C0.937,-0.14 0.921,-0.141 0.904,-0.139C0.897,-0.139 0.89,-0.138 0.884,-0.134C0.877,-0.131 0.872,-0.124 0.872,-0.118C0.872,-0.111 0.878,-0.108 0.884,-0.107ZM0.891,-0.181L0.891,-0.178C0.904,-0.181 0.918,-0.182 0.929,-0.18L0.931,-0.182C0.919,-0.185 0.905,-0.184 0.891,-0.181ZM1.03,-0.154L1.032,-0.156C1.019,-0.162 1.005,-0.164 0.99,-0.164L0.989,-0.161C1.004,-0.161 1.018,-0.159 1.03,-0.154ZM1.068,-0.202L1.07,-0.205C1.037,-0.21 1,-0.206 0.964,-0.193L0.964,-0.19C1,-0.203 1.036,-0.208 1.068,-0.202ZM0.388,0.183C0.341,0.122 0.293,0.062 0.245,0.001C0.316,0 0.387,0 0.458,-0C0.498,-0 0.545,-0.004 0.578,-0.036C0.6,-0.057 0.61,-0.086 0.631,-0.107C0.659,-0.135 0.699,-0.142 0.735,-0.151C0.819,-0.171 0.903,-0.21 0.986,-0.23C1.027,-0.239 1.067,-0.243 1.104,-0.238C1.126,-0.235 1.192,-0.223 1.192,-0.196C1.191,-0.172 1.118,-0.129 1.097,-0.116C1.06,-0.093 1.02,-0.075 0.981,-0.072C0.951,-0.07 0.924,-0.076 0.896,-0.08C0.856,-0.085 0.813,-0.083 0.77,-0.075C0.742,-0.07 0.711,-0.061 0.689,-0.038C0.665,-0.013 0.659,0.021 0.65,0.051C0.632,0.104 0.595,0.157 0.548,0.196C0.527,0.214 0.503,0.229 0.479,0.233C0.437,0.24 0.41,0.21 0.388,0.183Z" style="fill:url(#_Linear6);fill-rule:nonzero;"/>
                    </g>
                    <g transform="matrix(-720.451,1155.38,1155.38,720.451,893.302,-166.496)">
                        <path d="M0.234,0.042L0.235,0.039C0.226,0.039 0.218,0.041 0.209,0.045L0.21,0.048C0.218,0.044 0.226,0.042 0.234,0.042ZM0.317,0.035L0.318,0.032C0.307,0.029 0.296,0.028 0.284,0.029L0.283,0.032C0.295,0.031 0.306,0.032 0.317,0.035ZM0.338,0.045L0.339,0.043L0.332,0.039L0.331,0.041L0.338,0.045ZM0.387,0.053L0.388,0.051L0.38,0.045L0.378,0.048L0.387,0.053ZM0.491,0.11L0.492,0.107C0.471,0.1 0.452,0.089 0.435,0.076L0.433,0.078C0.451,0.091 0.47,0.102 0.491,0.11ZM0.532,0.125L0.533,0.122L0.516,0.116L0.515,0.118L0.532,0.125ZM0.391,0.037L0.39,0.039C0.403,0.044 0.415,0.051 0.427,0.059L0.428,0.057C0.417,0.048 0.404,0.042 0.391,0.037ZM0.514,0.082C0.506,0.074 0.494,0.069 0.484,0.063C0.483,0.062 0.482,0.062 0.48,0.062C0.479,0.062 0.477,0.063 0.477,0.065C0.476,0.067 0.478,0.068 0.479,0.069C0.489,0.076 0.501,0.081 0.514,0.082ZM0.644,0.134L0.645,0.131C0.626,0.133 0.608,0.13 0.592,0.124L0.591,0.126C0.608,0.133 0.625,0.135 0.644,0.134ZM0.693,0.105C0.698,0.104 0.702,0.102 0.707,0.101C0.712,0.1 0.718,0.098 0.721,0.092C0.715,0.086 0.7,0.091 0.692,0.095C0.689,0.097 0.686,0.1 0.686,0.103C0.687,0.106 0.69,0.106 0.693,0.105ZM0.818,0.03C0.834,0.018 0.851,0.005 0.869,-0.001L0.869,-0.003C0.851,0.003 0.834,0.016 0.817,0.028C0.8,0.041 0.782,0.055 0.763,0.06L0.763,0.062C0.782,0.057 0.801,0.043 0.818,0.03ZM0.871,0.04C0.876,0.039 0.892,0.034 0.893,0.028C0.894,0.012 0.854,0.035 0.849,0.04C0.849,0.039 0.868,0.041 0.871,0.04ZM0.987,-0.067L0.988,-0.069C0.965,-0.073 0.936,-0.064 0.912,-0.046L0.913,-0.044C0.937,-0.062 0.964,-0.071 0.987,-0.067ZM0.272,0.022C0.34,0.01 0.407,0.015 0.465,0.038C0.506,0.053 0.543,0.077 0.588,0.08C0.646,0.084 0.71,0.052 0.769,0.014C0.828,-0.025 0.884,-0.072 0.945,-0.104C1.005,-0.137 1.073,-0.154 1.122,-0.128C1.127,-0.126 1.133,-0.122 1.134,-0.115C1.136,-0.106 1.129,-0.095 1.123,-0.085C1.098,-0.048 1.074,-0.01 1.05,0.028C1.023,0.01 0.994,-0.006 0.961,-0.01C0.956,-0.01 0.951,-0.01 0.947,-0.007C0.943,-0.003 0.941,0.003 0.941,0.008C0.941,0.013 0.943,0.018 0.945,0.022C0.96,0.051 0.989,0.066 1.021,0.071C1.008,0.092 0.995,0.112 0.982,0.132C0.953,0.079 0.89,0.057 0.826,0.079C0.778,0.096 0.733,0.134 0.685,0.151C0.653,0.163 0.622,0.165 0.592,0.161C0.59,0.151 0.583,0.141 0.578,0.137C0.571,0.133 0.564,0.129 0.555,0.131C0.548,0.132 0.54,0.139 0.537,0.146C0.524,0.141 0.51,0.135 0.497,0.128C0.443,0.1 0.392,0.062 0.329,0.052C0.246,0.038 0.155,0.072 0.067,0.107C0.136,0.068 0.2,0.035 0.272,0.022Z" style="fill:url(#_Linear7);fill-rule:nonzero;"/>
                    </g>
                </g>
            </g>
        </g>
    </g>
    <defs>
        <linearGradient id="_Linear1" x1="0" y1="0" x2="1" y2="0" gradientUnits="userSpaceOnUse" gradientTransform="matrix(1,5.55112e-17,5.55112e-17,-1,0,0.0139837)"><stop offset="0" style="stop-color:rgb(77,29,143);stop-opacity:1"/><stop offset="1" style="stop-color:rgb(77,29,143);stop-opacity:1"/></linearGradient>
        <linearGradient id="_Linear2" x1="0" y1="0" x2="1" y2="0" gradientUnits="userSpaceOnUse" gradientTransform="matrix(1,0,0,-1,0,0.0342955)"><stop offset="0" style="stop-color:rgb(191,122,255);stop-opacity:1"/><stop offset="0.01" style="stop-color:rgb(191,122,255);stop-opacity:1"/><stop offset="1" style="stop-color:rgb(191,122,255);stop-opacity:1"/></linearGradient>
        <linearGradient id="_Linear3" x1="0" y1="0" x2="1" y2="0" gradientUnits="userSpaceOnUse" gradientTransform="matrix(1,-1.38778e-17,-1.38778e-17,-1,0,-0.0182102)"><stop offset="0" style="stop-color:rgb(241,105,217);stop-opacity:1"/><stop offset="0.96" style="stop-color:rgb(241,105,217);stop-opacity:1"/><stop offset="1" style="stop-color:rgb(241,105,217);stop-opacity:1"/></linearGradient>
        <linearGradient id="_Linear4" x1="0" y1="0" x2="1" y2="0" gradientUnits="userSpaceOnUse" gradientTransform="matrix(1,0,0,-1,0,0.00384555)"><stop offset="0" style="stop-color:rgb(77,29,143);stop-opacity:1"/><stop offset="1" style="stop-color:rgb(77,29,143);stop-opacity:1"/></linearGradient>
        <linearGradient id="_Linear5" x1="0" y1="0" x2="1" y2="0" gradientUnits="userSpaceOnUse" gradientTransform="matrix(1,-5.55112e-17,-5.55112e-17,-1,0,0.0116751)"><stop offset="0" style="stop-color:rgb(241,105,217);stop-opacity:1"/><stop offset="0.04" style="stop-color:rgb(241,105,217);stop-opacity:1"/><stop offset="1" style="stop-color:rgb(241,105,217);stop-opacity:1"/></linearGradient>
        <linearGradient id="_Linear6" x1="0" y1="0" x2="1" y2="0" gradientUnits="userSpaceOnUse" gradientTransform="matrix(1,0,0,-1,0,-0.00311509)"><stop offset="0" style="stop-color:rgb(241,105,217);stop-opacity:1"/><stop offset="0.04" style="stop-color:rgb(241,105,217);stop-opacity:1"/><stop offset="1" style="stop-color:rgb(241,105,217);stop-opacity:1"/></linearGradient>
        <linearGradient id="_Linear7" x1="0" y1="0" x2="1" y2="0" gradientUnits="userSpaceOnUse" gradientTransform="matrix(1,-5.55112e-17,-5.55112e-17,-1,0,0.0109688)"><stop offset="0" style="stop-color:rgb(191,122,255);stop-opacity:1"/><stop offset="0.01" style="stop-color:rgb(191,122,255);stop-opacity:1"/><stop offset="1" style="stop-color:rgb(191,122,255);stop-opacity:1"/></linearGradient>
    </defs>
</svg>
