<?xml version="1.0" encoding="UTF-8" standalone="no"?>
<!DOCTYPE svg PUBLIC "-//W3C//DTD SVG 1.1//EN" "http://www.w3.org/Graphics/SVG/1.1/DTD/svg11.dtd">
<svg width="100%" height="100%" viewBox="0 0 11053 1130" version="1.1" xmlns="http://www.w3.org/2000/svg" xmlns:xlink="http://www.w3.org/1999/xlink" xml:space="preserve" xmlns:serif="http://www.serif.com/" style="fill-rule:evenodd;clip-rule:evenodd;stroke-linejoin:round;stroke-miterlimit:2;">
    <g transform="matrix(1,0,0,1,409.342,-1817.74)">
        <g transform="matrix(8.33333,0,0,8.33333,0,0)">
            <g opacity="0.09">
                <g transform="matrix(-543.79,674.018,674.018,543.79,886.493,-62.1566)">
                    <path d="M1,-0.581C0.992,-0.58 0.983,-0.578 0.975,-0.575C0.967,-0.573 0.959,-0.571 0.951,-0.568C0.935,-0.562 0.919,-0.556 0.904,-0.549C0.873,-0.534 0.844,-0.516 0.819,-0.494C0.812,-0.488 0.806,-0.482 0.801,-0.476L0.792,-0.466L0.784,-0.456C0.779,-0.45 0.774,-0.442 0.77,-0.435C0.766,-0.428 0.762,-0.42 0.758,-0.412C0.751,-0.397 0.746,-0.381 0.743,-0.364C0.742,-0.355 0.741,-0.347 0.74,-0.338C0.739,-0.33 0.738,-0.322 0.736,-0.314C0.733,-0.297 0.728,-0.281 0.721,-0.266C0.713,-0.25 0.705,-0.236 0.695,-0.222C0.675,-0.195 0.651,-0.171 0.625,-0.149C0.6,-0.127 0.573,-0.106 0.548,-0.083C0.535,-0.072 0.522,-0.061 0.51,-0.049C0.498,-0.037 0.487,-0.024 0.477,-0.01C0.472,-0.003 0.468,0.004 0.464,0.012C0.46,0.019 0.456,0.027 0.454,0.035C0.451,0.043 0.449,0.052 0.448,0.06L0.447,0.073C0.446,0.077 0.446,0.081 0.445,0.086C0.442,0.102 0.438,0.118 0.433,0.135C0.427,0.151 0.422,0.166 0.415,0.182C0.402,0.213 0.388,0.244 0.372,0.274C0.364,0.288 0.355,0.303 0.346,0.318C0.338,0.332 0.329,0.346 0.319,0.36C0.3,0.388 0.28,0.415 0.258,0.441C0.235,0.467 0.212,0.491 0.185,0.512C0.172,0.523 0.159,0.533 0.144,0.542C0.13,0.551 0.115,0.559 0.099,0.565C0.084,0.571 0.067,0.576 0.051,0.579C0.042,0.58 0.034,0.581 0.025,0.581C0.017,0.581 0.008,0.581 0,0.58C0.008,0.581 0.017,0.581 0.025,0.581C0.034,0.581 0.042,0.58 0.051,0.579C0.067,0.577 0.084,0.572 0.1,0.566C0.115,0.56 0.131,0.552 0.145,0.543C0.159,0.534 0.173,0.524 0.186,0.513C0.213,0.492 0.237,0.468 0.259,0.442C0.282,0.417 0.302,0.39 0.321,0.362C0.34,0.334 0.358,0.305 0.374,0.275C0.39,0.245 0.405,0.215 0.418,0.183C0.425,0.168 0.431,0.152 0.436,0.135C0.441,0.119 0.445,0.103 0.448,0.086C0.449,0.082 0.45,0.078 0.45,0.073L0.451,0.061C0.452,0.053 0.454,0.044 0.457,0.036C0.46,0.028 0.463,0.021 0.467,0.013C0.471,0.006 0.475,-0.001 0.48,-0.008C0.49,-0.022 0.501,-0.035 0.513,-0.047C0.524,-0.059 0.537,-0.07 0.55,-0.081C0.575,-0.103 0.602,-0.124 0.627,-0.147C0.653,-0.169 0.677,-0.193 0.697,-0.221C0.707,-0.234 0.716,-0.249 0.723,-0.264C0.73,-0.28 0.736,-0.296 0.739,-0.313C0.741,-0.321 0.742,-0.33 0.742,-0.338C0.743,-0.347 0.744,-0.355 0.746,-0.363C0.749,-0.38 0.754,-0.396 0.76,-0.412C0.764,-0.419 0.768,-0.427 0.772,-0.434C0.776,-0.441 0.781,-0.448 0.786,-0.455C0.796,-0.469 0.807,-0.481 0.82,-0.492C0.845,-0.515 0.874,-0.533 0.904,-0.548C0.92,-0.555 0.935,-0.562 0.951,-0.567C0.959,-0.57 0.967,-0.573 0.975,-0.575C0.984,-0.577 0.992,-0.58 1,-0.581Z" style="fill:url(#_Linear1);fill-rule:nonzero;"/>
                </g>
            </g>
        </g>
    </g>
    <defs>
        <linearGradient id="_Linear1" x1="0" y1="0" x2="1" y2="0" gradientUnits="userSpaceOnUse" gradientTransform="matrix(1,0,0,-1,0,-5.40178e-05)"><stop offset="0" style="stop-color:rgb(190,122,255);stop-opacity:1"/><stop offset="0.01" style="stop-color:rgb(190,122,255);stop-opacity:1"/><stop offset="1" style="stop-color:rgb(190,122,255);stop-opacity:1"/></linearGradient>
    </defs>
</svg>
