<?xml version="1.0" encoding="UTF-8" standalone="no"?>
<!DOCTYPE svg PUBLIC "-//W3C//DTD SVG 1.1//EN" "http://www.w3.org/Graphics/SVG/1.1/DTD/svg11.dtd">
<svg width="100%" height="100%" viewBox="0 0 6366 8012" version="1.1" xmlns="http://www.w3.org/2000/svg" xmlns:xlink="http://www.w3.org/1999/xlink" xml:space="preserve" xmlns:serif="http://www.serif.com/" style="fill-rule:evenodd;clip-rule:evenodd;stroke-linejoin:round;stroke-miterlimit:2;">
    <g transform="matrix(1,0,0,1,-4314.92,1183.62)">
        <g transform="matrix(8.33333,0,0,8.33333,0,0)">
            <g opacity="0.1">
                <g transform="matrix(1003.77,-652.861,-652.861,-1003.77,410.423,667.002)">
                    <path d="M0.04,-0.173C0.039,-0.17 0.036,-0.165 0.037,-0.159C0.037,-0.153 0.038,-0.147 0.04,-0.141C0.042,-0.129 0.045,-0.117 0.049,-0.106C0.051,-0.1 0.053,-0.094 0.055,-0.089C0.058,-0.083 0.06,-0.077 0.063,-0.072C0.068,-0.061 0.074,-0.05 0.081,-0.04C0.095,-0.019 0.111,0.001 0.13,0.018C0.135,0.022 0.14,0.026 0.145,0.03L0.157,0.038C0.159,0.039 0.16,0.04 0.161,0.041C0.173,0.048 0.184,0.053 0.197,0.058C0.209,0.062 0.222,0.065 0.235,0.067L0.245,0.068C0.248,0.068 0.251,0.068 0.254,0.068C0.261,0.069 0.267,0.069 0.274,0.069C0.286,0.068 0.299,0.067 0.311,0.066C0.323,0.064 0.335,0.062 0.347,0.06L0.381,0.053C0.393,0.051 0.404,0.05 0.415,0.048C0.427,0.047 0.438,0.046 0.45,0.045L0.467,0.045C0.472,0.044 0.478,0.044 0.484,0.044C0.507,0.044 0.53,0.044 0.552,0.044C0.563,0.044 0.574,0.044 0.585,0.044C0.596,0.044 0.607,0.044 0.618,0.044C0.639,0.044 0.66,0.046 0.681,0.049C0.701,0.052 0.721,0.055 0.74,0.06C0.75,0.062 0.76,0.064 0.769,0.067C0.779,0.07 0.788,0.073 0.797,0.077C0.807,0.08 0.816,0.084 0.825,0.089C0.835,0.093 0.844,0.098 0.853,0.103L0.867,0.111L0.884,0.122L0.894,0.129C0.898,0.132 0.903,0.135 0.907,0.139C0.925,0.151 0.943,0.166 0.962,0.18L0.969,0.175L0.965,0.162L0.96,0.15L0.954,0.138L0.948,0.125C0.947,0.123 0.945,0.12 0.944,0.117L0.934,0.102C0.933,0.099 0.931,0.097 0.929,0.094C0.927,0.092 0.926,0.089 0.924,0.087C0.922,0.084 0.92,0.082 0.918,0.079C0.915,0.074 0.911,0.07 0.906,0.065C0.902,0.06 0.898,0.056 0.894,0.051C0.885,0.042 0.875,0.034 0.866,0.026C0.855,0.018 0.845,0.011 0.834,0.004C0.823,-0.002 0.811,-0.008 0.799,-0.014C0.788,-0.019 0.775,-0.023 0.763,-0.027C0.738,-0.034 0.713,-0.038 0.688,-0.038C0.663,-0.039 0.638,-0.038 0.614,-0.035C0.602,-0.034 0.59,-0.032 0.578,-0.03C0.566,-0.028 0.555,-0.025 0.543,-0.022C0.52,-0.016 0.498,-0.009 0.476,-0.001C0.47,0.001 0.465,0.003 0.459,0.005C0.454,0.007 0.448,0.009 0.443,0.011C0.432,0.014 0.421,0.018 0.41,0.021C0.399,0.024 0.388,0.026 0.377,0.029L0.364,0.031L0.352,0.033C0.349,0.033 0.346,0.033 0.344,0.033C0.322,0.034 0.3,0.031 0.28,0.023C0.275,0.021 0.271,0.019 0.266,0.017L0.252,0.01C0.243,0.005 0.235,-0 0.227,-0.005C0.218,-0.011 0.21,-0.016 0.202,-0.022L0.19,-0.031C0.186,-0.033 0.182,-0.036 0.178,-0.039C0.162,-0.052 0.147,-0.065 0.132,-0.08C0.125,-0.088 0.117,-0.095 0.11,-0.103C0.106,-0.107 0.103,-0.111 0.099,-0.115C0.095,-0.119 0.092,-0.124 0.088,-0.128C0.081,-0.136 0.073,-0.145 0.066,-0.153L0.044,-0.18C0.044,-0.18 0.041,-0.176 0.04,-0.173Z" style="fill:url(#_Linear1);fill-rule:nonzero;"/>
                </g>
            </g>
        </g>
    </g>
    <defs>
        <linearGradient id="_Linear1" x1="0" y1="0" x2="1" y2="0" gradientUnits="userSpaceOnUse" gradientTransform="matrix(1,0,0,-1,0,-2.47891e-07)"><stop offset="0" style="stop-color:rgb(240,105,216);stop-opacity:1"/><stop offset="0.04" style="stop-color:rgb(240,105,216);stop-opacity:1"/><stop offset="1" style="stop-color:rgb(240,105,216);stop-opacity:1"/></linearGradient>
    </defs>
</svg>
