<?xml version="1.0" encoding="UTF-8" standalone="no"?>
<!DOCTYPE svg PUBLIC "-//W3C//DTD SVG 1.1//EN" "http://www.w3.org/Graphics/SVG/1.1/DTD/svg11.dtd">
<svg width="100%" height="100%" viewBox="0 0 9987 2945" version="1.1" xmlns="http://www.w3.org/2000/svg" xmlns:xlink="http://www.w3.org/1999/xlink" xml:space="preserve" xmlns:serif="http://www.serif.com/" style="fill-rule:evenodd;clip-rule:evenodd;stroke-linejoin:round;stroke-miterlimit:2;">
    <g transform="matrix(1,0,0,1,-410.187,-110.295)">
        <g transform="matrix(8.33333,0,0,8.33333,0,0)">
            <g transform="matrix(1,0,0,1,629.921,202.513)">
                <path d="M0,1.311C0.843,1.311 0.845,0 0,0C-0.843,0 -0.845,1.311 0,1.311" style="fill:rgb(110,249,203);fill-rule:nonzero;"/>
            </g>
            <g transform="matrix(1,0,0,1,971.355,278.777)">
                <path d="M0,1.311C0.843,1.311 0.845,0 0,0C-0.844,0 -0.845,1.311 0,1.311" style="fill:rgb(110,249,203);fill-rule:nonzero;"/>
            </g>
            <g transform="matrix(1,0,0,1,49.8555,206.277)">
                <path d="M0,1.311C0.843,1.311 0.845,0 0,0C-0.843,0 -0.845,1.311 0,1.311" style="fill:rgb(110,249,203);fill-rule:nonzero;"/>
            </g>
            <g transform="matrix(1,0,0,1,69.8555,318.277)">
                <path d="M0,1.311C0.843,1.311 0.845,0 0,0C-0.843,0 -0.845,1.311 0,1.311" style="fill:rgb(110,249,203);fill-rule:nonzero;"/>
            </g>
            <g transform="matrix(1,0,0,1,303.855,264.277)">
                <path d="M0,1.311C0.843,1.311 0.845,0 0,0C-0.843,0 -0.845,1.311 0,1.311" style="fill:rgb(110,249,203);fill-rule:nonzero;"/>
            </g>
            <g transform="matrix(1,0,0,1,254.855,158.276)">
                <path d="M0,1.311C0.843,1.311 0.845,0 0,0C-0.843,0 -0.845,1.311 0,1.311" style="fill:rgb(110,249,203);fill-rule:nonzero;"/>
            </g>
            <g transform="matrix(1,0,0,1,513.855,114.276)">
                <path d="M0,1.311C0.843,1.311 0.845,0 0,0C-0.843,0 -0.845,1.311 0,1.311" style="fill:rgb(110,249,203);fill-rule:nonzero;"/>
            </g>
            <g transform="matrix(1,0,0,1,1207.86,96.2764)">
                <path d="M0,1.311C0.843,1.311 0.845,0 0,0C-0.844,0 -0.845,1.311 0,1.311" style="fill:rgb(110,249,203);fill-rule:nonzero;"/>
            </g>
            <g transform="matrix(1,0,0,1,1085.86,204.277)">
                <path d="M0,1.311C0.843,1.311 0.845,0 0,0C-0.844,0 -0.845,1.311 0,1.311" style="fill:rgb(110,249,203);fill-rule:nonzero;"/>
            </g>
            <g transform="matrix(1,0,0,1,1123.86,296.277)">
                <path d="M0,1.311C0.843,1.311 0.845,0 0,0C-0.844,0 -0.845,1.311 0,1.311" style="fill:rgb(110,249,203);fill-rule:nonzero;"/>
            </g>
            <g transform="matrix(1,0,0,1,871.667,317.902)">
                <path d="M0,1.311C0.843,1.311 0.845,0 0,0C-0.844,0 -0.845,1.311 0,1.311" style="fill:rgb(110,249,203);fill-rule:nonzero;"/>
            </g>
            <g transform="matrix(1,0,0,1,655,73.9019)">
                <path d="M0,1.311C0.844,1.311 0.845,0 0,0C-0.844,0 -0.845,1.311 0,1.311" style="fill:rgb(110,249,203);fill-rule:nonzero;"/>
            </g>
            <g transform="matrix(1,0,0,1,940.333,72.5689)">
                <path d="M0,1.311C0.844,1.311 0.845,0 0,0C-0.843,0 -0.845,1.311 0,1.311" style="fill:rgb(110,249,203);fill-rule:nonzero;"/>
            </g>
            <g transform="matrix(1,0,0,1,783,107.902)">
                <path d="M0,1.311C0.844,1.311 0.845,0 0,0C-0.844,0 -0.845,1.311 0,1.311" style="fill:rgb(110,249,203);fill-rule:nonzero;"/>
            </g>
            <g transform="matrix(1,0,0,1,509.666,357.235)">
                <path d="M0,1.312C0.843,1.312 0.845,0 0,0C-0.843,0 -0.845,1.312 0,1.312" style="fill:rgb(110,249,203);fill-rule:nonzero;"/>
            </g>
            <g transform="matrix(1,0,0,1,1212.33,365.235)">
                <path d="M0,1.312C0.844,1.312 0.845,0 0,0C-0.843,0 -0.845,1.312 0,1.312" style="fill:rgb(110,249,203);fill-rule:nonzero;"/>
            </g>
            <g transform="matrix(1,0,0,1,1247,289.235)">
                <path d="M0,1.312C0.844,1.312 0.845,0 0,0C-0.844,0 -0.845,1.312 0,1.312" style="fill:rgb(110,249,203);fill-rule:nonzero;"/>
            </g>
            <g transform="matrix(1,0,0,1,530.333,13.2354)">
                <path d="M0,1.311C0.843,1.311 0.845,0 0,0C-0.843,0 -0.845,1.311 0,1.311" style="fill:rgb(110,249,203);fill-rule:nonzero;"/>
            </g>
            <g transform="matrix(1,0,0,1,83,51.9019)">
                <path d="M0,1.311C0.843,1.311 0.845,0 0,0C-0.843,0 -0.845,1.311 0,1.311" style="fill:rgb(110,249,203);fill-rule:nonzero;"/>
            </g>
            <g transform="matrix(1,0,0,1,352.333,28.5689)">
                <path d="M0,1.311C0.843,1.311 0.845,0 0,0C-0.843,0 -0.845,1.311 0,1.311" style="fill:rgb(110,249,203);fill-rule:nonzero;"/>
            </g>
        </g>
    </g>
</svg>
